# Blender3D v249 OBJ File: aim120a.blend
# www.blender3d.org
v 0.532673 -0.000000 0.000000
v -0.447562 -0.026951 -0.026951
v -0.447562 0.026951 0.026951
v -0.235012 -0.026951 -0.026950
v -0.447562 0.128981 -0.128981
v -0.235012 0.026951 0.026951
v 0.532673 0.507375 -0.507374
v 4.755554 0.608067 -0.608067
v 4.938501 -0.000000 -0.000000
v 4.071943 -0.026951 -0.026951
v 4.071943 0.026951 0.026950
v 4.313517 -0.026951 -0.026951
v 4.071943 0.300007 -0.300007
v 4.313517 0.026951 0.026950
v 4.938501 0.604859 -0.604859
v 4.755554 -0.608067 0.608066
v 4.938501 0.000000 -0.000000
v 4.071943 0.026951 0.026950
v 4.071943 -0.026951 -0.026951
v 4.313517 0.026951 0.026950
v 4.071943 -0.300007 0.300007
v 4.313517 -0.026951 -0.026951
v 4.938501 -0.604860 0.604859
v 0.532673 0.000000 -0.000000
v -0.447562 0.026951 0.026951
v -0.447562 -0.026951 -0.026951
v -0.235012 0.026951 0.026950
v -0.447562 -0.128981 0.128981
v -0.235012 -0.026951 -0.026951
v 0.532674 -0.507375 0.507374
v 0.532673 0.000000 0.000000
v -0.447562 -0.026951 0.026951
v -0.447562 0.026951 -0.026951
v -0.235012 -0.026950 0.026951
v -0.447562 -0.128981 -0.128981
v -0.235012 0.026951 -0.026951
v 0.532673 -0.507375 -0.507374
v 4.755554 -0.608067 -0.608066
v 4.938501 0.000000 0.000000
v 4.071943 -0.026951 0.026951
v 4.071943 0.026951 -0.026951
v 4.313517 -0.026950 0.026951
v 4.071943 -0.300007 -0.300007
v 4.313517 0.026951 -0.026951
v 4.938501 -0.604859 -0.604859
v 4.755554 0.608067 0.608067
v 4.938501 -0.000000 0.000000
v 4.071943 0.026951 -0.026951
v 4.071943 -0.026951 0.026951
v 4.313517 0.026950 -0.026951
v 4.071943 0.300007 0.300007
v 4.313517 -0.026951 0.026951
v 4.938501 0.604859 0.604859
v 0.532673 -0.000000 -0.000000
v -0.447562 0.026951 -0.026951
v -0.447562 -0.026951 0.026951
v -0.235012 0.026950 -0.026951
v -0.447562 0.128981 0.128981
v -0.235012 -0.026951 0.026951
v 0.532673 0.507374 0.507375
v -3.589706 -0.247686 -0.000000
v -3.589706 -0.175140 0.175140
v -3.589706 0.000000 0.247686
v -3.589706 0.175140 0.175140
v -3.589706 0.247686 -0.000000
v -3.589706 0.175140 -0.175140
v -3.589706 -0.000000 -0.247686
v -3.589706 -0.175140 -0.175140
v 4.951270 -0.247686 0.000000
v 4.951270 -0.175140 0.175140
v 4.951270 -0.000000 0.247686
v 4.951270 0.175140 0.175140
v 4.951270 0.247686 0.000000
v 4.951270 0.175140 -0.175140
v 4.951270 -0.000000 -0.247686
v 4.951270 -0.175140 -0.175140
v 4.951270 0.000000 0.000000
v -3.983547 -0.150718 -0.150718
v -3.983547 -0.000000 -0.213148
v -3.983547 0.150718 -0.150718
v -3.983547 0.213148 -0.000000
v -3.983547 0.150718 0.150718
v -3.983547 0.000000 0.213148
v -3.983547 -0.150718 0.150718
v -3.983547 -0.213148 -0.000000
v -4.388640 -0.171076 -0.000000
v -4.388640 -0.120969 0.120969
v -4.388640 0.000000 0.171076
v -4.388640 0.120969 0.120969
v -4.388640 0.171076 -0.000000
v -4.388640 0.120969 -0.120969
v -4.388640 -0.000000 -0.171076
v -4.388640 -0.120969 -0.120969
v -4.714965 -0.064449 -0.064449
v -4.714965 -0.000000 -0.091144
v -4.714965 0.064449 -0.064449
v -4.714965 0.091144 -0.000000
v -4.714965 0.064449 0.064448
v -4.714965 -0.000000 0.091144
v -4.714965 -0.064449 0.064448
v -4.714965 -0.091144 -0.000000
v -4.928765 -0.000000 -0.000000
vt 0.548996 0.771613
vt 0.548996 0.496022
vt 0.475282 0.496022
vt 0.888837 0.658977
vt 0.888837 0.496022
vt 0.954477 0.826307
vt 0.972044 0.824564
vt 0.912032 0.496022
vt 0.972044 0.496022
vt 0.888837 0.333067
vt 0.954477 0.165737
vt 0.972044 0.167480
vt 0.548996 0.220431
vt 0.973270 0.496022
vt 0.973270 0.563290
vt 0.973270 0.428754
vt 0.973270 0.400891
vt 0.973270 0.591153
vt 0.045117 0.520775
vt 0.045117 0.496022
vt 0.024588 0.496022
vt 0.045117 0.471269
vt 0.045117 0.461015
vt 0.045117 0.531029
vt 0.076451 0.542484
vt 0.076451 0.496022
vt 0.076451 0.449560
vt 0.076451 0.430315
vt 0.076451 0.561729
vt 0.115348 0.577888
vt 0.115348 0.553910
vt 0.115348 0.496022
vt 0.115348 0.438134
vt 0.115348 0.414156
vt 0.153165 0.563290
vt 0.153165 0.496022
vt 0.153165 0.428754
vt 0.153165 0.400891
vt 0.153165 0.591153
vt 0.454873 0.425963
vt 0.454873 0.496022
vt 0.454873 0.566081
vn -0.049587 -0.706237 -0.706237
vn -0.049587 0.706237 0.706237
vn 1.000000 0.000000 0.000000
vn 0.056928 0.639964 0.766293
vn -0.001084 0.675514 0.737347
vn 0.000000 0.675104 0.737723
vn -0.001084 -0.737346 -0.675514
vn 0.056928 -0.766293 -0.639964
vn -0.000000 -0.737723 -0.675104
vn -0.060871 -0.705796 -0.705796
vn -0.060871 0.705796 0.705796
vn 0.056928 -0.639964 -0.766293
vn -0.001084 -0.675514 -0.737347
vn -0.000000 -0.675103 -0.737723
vn -0.001084 0.737346 0.675514
vn 0.056928 0.766293 0.639964
vn 0.000000 0.737723 0.675104
vn -0.060871 0.705795 0.705796
vn -0.060871 -0.705795 -0.705796
vn -0.049587 -0.706237 0.706237
vn -0.049587 0.706237 -0.706237
vn 0.056928 0.766293 -0.639964
vn -0.001084 0.737347 -0.675514
vn -0.000000 0.737723 -0.675104
vn -0.001084 -0.675514 0.737346
vn 0.056928 -0.639964 0.766293
vn -0.000000 -0.675104 0.737723
vn -0.060871 -0.705796 0.705796
vn -0.060871 0.705796 -0.705796
vn 0.056928 -0.766293 0.639964
vn -0.001084 -0.737347 0.675514
vn -0.000000 -0.737723 0.675104
vn -0.001084 0.675514 -0.737346
vn 0.056928 0.639964 -0.766293
vn 0.000000 0.675104 -0.737723
vn -0.366457 -0.859610 0.356062
vn -0.366457 -0.356062 0.859610
vn -0.366457 0.356062 0.859610
vn -0.366457 0.859610 0.356062
vn -0.366457 0.859610 -0.356062
vn -0.366457 0.356062 -0.859610
vn -0.366457 -0.356062 -0.859610
vn -0.366457 -0.859610 -0.356062
vn -0.220719 -0.901094 0.373246
vn -0.220719 -0.901094 0.373245
vn -0.220719 -0.373245 0.901094
vn -0.220719 0.373246 0.901094
vn -0.220719 0.373245 0.901094
vn -0.220719 0.901094 0.373245
vn -0.220719 0.901094 -0.373246
vn -0.220719 0.901094 -0.373245
vn -0.220719 0.373245 -0.901094
vn -0.220719 -0.373245 -0.901094
vn -0.220719 -0.901094 -0.373245
vn -0.095512 -0.919656 -0.380934
vn -0.095512 -0.380934 -0.919656
vn -0.095513 -0.380934 -0.919656
vn -0.095512 0.380934 -0.919656
vn -0.095513 0.919656 -0.380934
vn -0.095513 0.919656 0.380934
vn -0.095513 0.919656 0.380933
vn -0.095513 0.380934 0.919656
vn -0.095513 -0.380934 0.919656
vn -0.095513 -0.919656 0.380934
vn -0.080755 -0.920862 0.381434
vn -0.080755 -0.381433 0.920862
vn -0.080755 0.381434 0.920862
vn -0.080755 0.920862 0.381433
vn -0.080755 0.920862 -0.381434
vn -0.080755 0.381433 -0.920862
vn -0.080755 -0.381433 -0.920862
vn -0.080755 -0.920862 -0.381434
vn 0.000000 -0.923880 -0.382683
vn 0.000000 -0.382685 -0.923879
vn 0.000000 -0.382683 -0.923880
vn 0.000000 0.382683 -0.923880
vn 0.000000 0.923879 -0.382684
vn 0.000000 0.923879 -0.382683
vn -0.000000 0.923880 0.382683
vn -0.000000 0.382683 0.923880
vn -0.000000 0.382684 0.923880
vn -0.000000 -0.382684 0.923879
vn -0.000000 -0.382683 0.923880
vn -0.000000 -0.923880 0.382683
vn -0.000000 -0.923879 0.382684
vn 0.068993 0.610375 -0.789102
vn -0.000000 0.547532 -0.836785
vn 0.068993 -0.789102 0.610375
vn -0.000000 -0.836785 0.547532
vn 0.068993 -0.610375 0.789102
vn -0.000000 -0.547532 0.836785
vn 0.068993 0.789102 -0.610375
vn -0.000000 0.836785 -0.547532
vn 0.068993 0.789102 0.610375
vn -0.000000 0.836785 0.547532
vn 0.068993 -0.610375 -0.789102
vn -0.000000 -0.547532 -0.836785
vn 0.068993 -0.789102 -0.610375
vn -0.000000 -0.836785 -0.547532
vn 0.068993 0.610375 0.789102
vn -0.000000 0.547532 0.836785
usemtl None_shade.png
s off
f 7/1/1 1/2/1 6/3/1
f 1/2/2 7/1/2 4/3/2
f 13/4/3 11/5/3 10/5/3
f 8/6/4 13/4/4 10/5/4
f 15/7/5 8/6/5 12/8/5
f 8/6/6 10/5/6 12/8/6
f 8/6/7 15/7/7 14/8/7
f 13/4/8 8/6/8 11/5/8
f 8/6/9 14/8/9 11/5/9
f 14/8/10 15/7/10 9/9/10
f 9/9/11 15/7/11 12/8/11
f 21/10/3 19/5/3 18/5/3
f 16/11/12 21/10/12 18/5/12
f 23/12/13 16/11/13 20/8/13
f 16/11/14 18/5/14 20/8/14
f 16/11/15 23/12/15 22/8/15
f 21/10/16 16/11/16 19/5/16
f 16/11/17 22/8/17 19/5/17
f 22/8/18 23/12/18 17/9/18
f 17/9/19 23/12/19 20/8/19
f 29/3/2 30/13/2 24/2/2
f 24/2/1 30/13/1 27/3/1
f 37/1/20 31/2/20 36/3/20
f 31/2/21 37/1/21 34/3/21
f 43/4/3 41/5/3 40/5/3
f 38/6/22 43/4/22 40/5/22
f 45/7/23 38/6/23 42/8/23
f 38/6/24 40/5/24 42/8/24
f 38/6/25 45/7/25 44/8/25
f 43/4/26 38/6/26 41/5/26
f 38/6/27 44/8/27 41/5/27
f 44/8/28 45/7/28 39/9/28
f 39/9/29 45/7/29 42/8/29
f 51/10/3 49/5/3 48/5/3
f 46/11/30 51/10/30 48/5/30
f 53/12/31 46/11/31 50/8/31
f 46/11/32 48/5/32 50/8/32
f 46/11/33 53/12/33 52/8/33
f 51/10/34 46/11/34 49/5/34
f 46/11/35 52/8/35 49/5/35
f 52/8/29 53/12/29 47/9/29
f 47/9/28 53/12/28 50/8/28
f 59/3/21 60/13/21 54/2/21
f 54/2/20 60/13/20 57/3/20
f 77/14/3 70/14/3 69/15/3
f 77/14/3 71/16/3 70/14/3
f 77/14/3 72/17/3 71/16/3
f 77/14/3 73/16/3 72/17/3
f 77/14/3 74/14/3 73/16/3
f 77/14/3 75/15/3 74/14/3
f 77/14/3 76/18/3 75/15/3
f 77/14/3 69/15/3 76/18/3
f 101/19/36 100/20/36 102/21/36
f 100/20/37 99/22/37 102/21/37
f 99/22/38 98/23/38 102/21/38
f 98/23/39 97/22/39 102/21/39
f 97/22/40 96/20/40 102/21/40
f 96/20/41 95/19/41 102/21/41
f 95/19/42 94/24/42 102/21/42
f 94/24/43 101/19/43 102/21/43
f 86/25/44 87/26/44 100/20/44
f 86/25/45 100/20/45 101/19/45
f 87/26/46 88/27/46 99/22/46
f 87/26/46 99/22/46 100/20/46
f 88/27/47 89/28/47 98/23/47
f 88/27/48 98/23/48 99/22/48
f 89/28/49 90/27/49 97/22/49
f 89/28/49 97/22/49 98/23/49
f 90/27/50 91/26/50 96/20/50
f 90/27/51 96/20/51 97/22/51
f 91/26/52 92/25/52 95/19/52
f 91/26/52 95/19/52 96/20/52
f 92/25/53 93/29/53 94/24/53
f 92/25/53 94/24/53 95/19/53
f 93/29/54 86/25/54 101/19/54
f 93/29/54 101/19/54 94/24/54
f 78/30/55 85/31/55 86/25/55
f 78/30/55 86/25/55 93/29/55
f 79/31/56 78/30/56 93/29/56
f 79/31/57 93/29/57 92/25/57
f 80/32/58 79/31/58 92/25/58
f 80/32/58 92/25/58 91/26/58
f 81/33/59 80/32/59 91/26/59
f 81/33/59 91/26/59 90/27/59
f 82/34/60 81/33/60 89/28/60
f 81/33/61 90/27/61 89/28/61
f 83/33/62 82/34/62 88/27/62
f 82/34/62 89/28/62 88/27/62
f 84/32/63 83/33/63 88/27/63
f 84/32/63 88/27/63 87/26/63
f 85/31/64 84/32/64 87/26/64
f 85/31/64 87/26/64 86/25/64
f 61/35/65 62/36/65 84/32/65
f 61/35/65 84/32/65 85/31/65
f 62/36/66 63/37/66 83/33/66
f 62/36/66 83/33/66 84/32/66
f 63/37/67 64/38/67 83/33/67
f 64/38/67 82/34/67 83/33/67
f 64/38/68 65/37/68 82/34/68
f 65/37/68 81/33/68 82/34/68
f 65/37/69 66/36/69 80/32/69
f 65/37/69 80/32/69 81/33/69
f 66/36/70 67/35/70 79/31/70
f 66/36/70 79/31/70 80/32/70
f 67/35/71 68/39/71 78/30/71
f 67/35/71 78/30/71 79/31/71
f 68/39/72 61/35/72 85/31/72
f 68/39/72 85/31/72 78/30/72
f 69/15/73 61/35/73 68/39/73
f 69/15/73 68/39/73 76/18/73
f 67/35/74 75/15/74 76/18/74
f 67/35/75 76/18/75 68/39/75
f 66/36/76 74/14/76 75/15/76
f 66/36/76 75/15/76 67/35/76
f 65/37/77 73/16/77 74/14/77
f 65/37/78 74/14/78 66/36/78
f 64/38/79 72/17/79 73/16/79
f 64/38/79 73/16/79 65/37/79
f 63/37/80 71/16/80 72/17/80
f 63/37/81 72/17/81 64/38/81
f 62/36/82 70/14/82 71/16/82
f 62/36/83 71/16/83 63/37/83
f 61/35/84 69/15/84 70/14/84
f 61/35/85 70/14/85 62/36/85
f 60/13/86 59/3/86 58/40/86
f 59/3/87 56/41/87 58/40/87
f 60/13/88 58/40/88 57/3/88
f 58/40/89 55/41/89 57/3/89
f 37/1/90 36/3/90 35/42/90
f 36/3/91 33/41/91 35/42/91
f 37/1/92 35/42/92 34/3/92
f 35/42/93 32/41/93 34/3/93
f 30/13/94 29/3/94 28/40/94
f 29/3/95 26/41/95 28/40/95
f 30/13/96 28/40/96 27/3/96
f 28/40/97 25/41/97 27/3/97
f 7/1/98 6/3/98 5/42/98
f 6/3/99 3/41/99 5/42/99
f 7/1/100 5/42/100 4/3/100
f 5/42/101 2/41/101 4/3/101
